<svg width="1440" height="827" viewBox="0 0 1440 827" fill="none" xmlns="http://www.w3.org/2000/svg">
<g clip-path="url(#clip0_461_287)">
<path d="M-31 314C57.7506 305.8 215.77 291 300 192C395.298 79.991 517 -5.5 671.5 -17" stroke="#0085FF" stroke-width="4"/>
<path d="M748 843C769.89 805.487 830.112 706.381 967.256 670.968C1051.05 649.332 1116.75 672.449 1155.22 642.02C1208.8 599.645 1197.23 543.888 1174.84 525.442C1164.42 516.85 1138.81 508.987 1131.69 517.999C1122.55 529.584 1135.24 551.233 1152.87 560.986C1181.07 576.593 1222.63 556.912 1246.45 521.222C1282.45 467.306 1342.05 286.91 1463.67 233.808" stroke="#FF8008" stroke-width="4"/>
</g>
<defs>
<clipPath id="clip0_461_287">
<rect width="1440" height="827" fill="white"/>
</clipPath>
</defs>
</svg>
